<?xml version="1.0" encoding="UTF-8" standalone="no"?>
<svg
   xmlns:dc="http://purl.org/dc/elements/1.1/"
   xmlns:cc="http://creativecommons.org/ns#"
   xmlns:rdf="http://www.w3.org/1999/02/22-rdf-syntax-ns#"
   xmlns:svg="http://www.w3.org/2000/svg"
   xmlns="http://www.w3.org/2000/svg"
   xmlns:sodipodi="http://sodipodi.sourceforge.net/DTD/sodipodi-0.dtd"
   xmlns:inkscape="http://www.inkscape.org/namespaces/inkscape"
   width="1800"
   height="905"
   enable-background="new"
   version="1.1"
   viewBox="0 0 476.26172 239.45381"
   id="svg66"
   sodipodi:docname="banner.svg"
   inkscape:version="1.0 (4035a4fb49, 2020-05-01)">
  <defs
     id="defs70" />
  <sodipodi:namedview
     inkscape:document-rotation="0"
     pagecolor="#ffffff"
     bordercolor="#666666"
     borderopacity="1"
     objecttolerance="10"
     gridtolerance="10"
     guidetolerance="10"
     inkscape:pageopacity="0"
     inkscape:pageshadow="2"
     inkscape:window-width="2556"
     inkscape:window-height="1385"
     id="namedview68"
     showgrid="false"
     inkscape:zoom="0.6097415"
     inkscape:cx="597.692"
     inkscape:cy="345.59422"
     inkscape:window-x="1920"
     inkscape:window-y="26"
     inkscape:window-maximized="0"
     inkscape:current-layer="svg66" />
  <title
     id="title2">Werkkooperative der Technikfreundinnen e.G.</title>
  <metadata
     id="metadata4">
    <rdf:RDF>
      <cc:Work
         rdf:about="">
        <dc:format>image/svg+xml</dc:format>
        <dc:type
           rdf:resource="http://purl.org/dc/dcmitype/StillImage" />
        <dc:title>Werkkooperative der Technikfreundinnen e.G.</dc:title>
        <cc:license
           rdf:resource="http://creativecommons.org/licenses/by/4.0/" />
        <dc:creator>
          <cc:Agent>
            <dc:title>L3D</dc:title>
          </cc:Agent>
        </dc:creator>
      </cc:Work>
      <cc:License
         rdf:about="http://creativecommons.org/licenses/by/4.0/">
        <cc:permits
           rdf:resource="http://creativecommons.org/ns#Reproduction" />
        <cc:permits
           rdf:resource="http://creativecommons.org/ns#Distribution" />
        <cc:requires
           rdf:resource="http://creativecommons.org/ns#Notice" />
        <cc:requires
           rdf:resource="http://creativecommons.org/ns#Attribution" />
        <cc:permits
           rdf:resource="http://creativecommons.org/ns#DerivativeWorks" />
      </cc:License>
    </rdf:RDF>
  </metadata>
  <rect
     height="239.45381"
     y="0"
     x="-2.220446e-16"
     width="476.26172"
     id="rect855"
     style="fill:#ff6600;stroke-width:0.026459" />
  <g
     style="fill:#2a7fff"
     transform="matrix(1.6728325,0,0,1.6728325,126.56981,-7.9801809)"
     shape-rendering="auto"
     id="g10">
    <path
       d="m 109.8,61.441 2.6032,-0.1735 -2.1751,-3.7494 3.3899,3.2288 1.909,-3.9916 -4.5123,-10.587 -3.1022,-10.999 -0.6169,-0.65706 23.677,-24.443 -27.039,20.862 -3.3539,-3.5722 -3.1322,-0.65439 0.433,-2.1007 -0.61319,-4.0419 -2.3205,3.4889 -0.1464,2.219 -2.7029,-0.75481 -9.8489,7.3325 -14.994,22.424 -15.211,-22.435 -9.8227,-7.3465 -2.7643,0.53982 -0.0445,-1.9467 -2.2444,-3.6912 -0.74936,4.1251 0.46127,2.0054 -3.1605,0.7497 -3.3539,3.5722 -26.691,-20.507 23.329,24.087 -0.59673,0.80978 -3.1224,10.846 -4.5123,10.587 1.909,3.9916 3.1412,-2.7815 -1.9264,3.3022 2.6032,0.17351 12.91,-13.362 5.0527,3.1655 5.8919,24.617 -43.495,47.515 16.507,-4.3999 45.813,-33.585 43.87,33.585 18.295,4.4366 -43.45,-47.523 5.7625,-24.619 5.2333,-3.1042 z"
       color="#000000"
       color-rendering="auto"
       dominant-baseline="auto"
       enable-background="accumulate"
       fill="#f2f2f2"
       image-rendering="auto"
       solid-color="#000000"
       stop-color="#000000"
       style="font-variant-ligatures:normal;font-variant-position:normal;font-variant-caps:normal;font-variant-numeric:normal;font-variant-alternates:normal;font-variant-east-asian:normal;font-feature-settings:normal;font-variation-settings:normal;text-indent:0;text-decoration:none;text-decoration-line:none;text-decoration-style:solid;text-decoration-color:#000000;text-transform:none;text-orientation:mixed;white-space:normal;shape-padding:0;shape-margin:0;inline-size:0;isolation:auto;mix-blend-mode:normal;fill:#2a7fff"
       id="path6" />
    <path
       d="m 130.89,9.9648 -26.943,20.789 -3.3008,-3.5156 -3.043,-0.63476 0.41016,-1.9961 -0.66797,-4.4023 -2.5293,3.8027 -0.13867,2.0918 -2.6074,-0.72852 -9.9199,7.3848 -14.896,22.279 -15.113,-22.291 -9.8887,-7.3945 -2.668,0.52148 L 39.5434,24.0446 37.1,20.027 l -0.81641,4.4941 0.4375,1.9043 -3.0703,0.72852 -3.3008,3.5137 -26.578,-20.42 -0.00195,-0.002 -0.015625,-0.01172 -0.17578,0.19727 23.252,24.006 -0.54492,0.73828 -3.125,10.861 -4.5332,10.635 2.0098,4.2031 2.6562,-2.3516 -1.6191,2.7754 2.877,0.19141 12.879,-13.328 4.916,3.0801 5.8633,24.496 -43.754,47.795 16.969,-4.5215 45.752,-33.541 43.814005,33.541 18.742,4.5449 -43.695005,-47.791 5.7344,-24.498 5.0957,-3.0215 12.879005,13.33 0.0606,-0.0039 2.8164,-0.1875 -1.8164,-3.1309 2.8516,2.7148 2.0137,-4.2109 -4.5332,-10.633 -3.1094,-11.021 -0.55273,-0.58984 23.576,-24.338 0.0137,-0.01367 -0.17578,-0.19727 z m -1.2891,1.332 -22.49,23.215 0.68165,0.72461 3.0957,10.977 4.4922,10.539 -1.8047,3.7734 -3.2578,-3.1035 -0.20508,0.16211 2.0664,3.5645 -2.3281,0.15625 -12.939,-13.393 -5.373,3.1855 -5.791,24.742 43.205,47.256 -17.848,-4.3281 -43.926,-33.629 -45.873,33.629 -16.045,4.2773 43.236,-47.232 -5.9199,-24.738 -5.1895,-3.25 -12.941,13.395 -2.3301,-0.15625 1.8184,-3.1172 -0.20117,-0.16602 -3.0098,2.666 -1.8066,-3.7812 4.4902,-10.537 3.1191,-10.832 0.64844,-0.88086 -22.148,-22.869 25.352,19.479 3.4082,-3.6309 3.25,-0.77148 -0.48438,-2.1055 0.68164,-3.7578 2.0469,3.3652 0.04687,2.0684 2.8594,-0.55859 9.7578,7.2969 15.309,22.58 15.092,-22.568 9.7773,-7.2812 2.7969,0.78125 0.15625,-2.3457 2.1113,-3.1719 0.55859,3.6777 -0.45508,2.207 3.22069,0.67188 3.4063,3.6289 25.684,-19.812 z"
       color="#000000"
       color-rendering="auto"
       dominant-baseline="auto"
       enable-background="accumulate"
       image-rendering="auto"
       solid-color="#000000"
       stop-color="#000000"
       style="font-variant-ligatures:normal;font-variant-position:normal;font-variant-caps:normal;font-variant-numeric:normal;font-variant-alternates:normal;font-variant-east-asian:normal;font-feature-settings:normal;font-variation-settings:normal;text-indent:0;text-decoration:none;text-decoration-line:none;text-decoration-style:solid;text-decoration-color:#000000;text-transform:none;text-orientation:mixed;white-space:normal;shape-padding:0;shape-margin:0;inline-size:0;isolation:auto;mix-blend-mode:normal;fill:#2a7fff"
       id="path8" />
  </g>
  <g
     style="fill:#003380"
     transform="matrix(1.6728325,0,0,1.6728325,126.56981,-7.9801809)"
     shape-rendering="auto"
     id="g52">
    <path
       d="m 67.256,54.818 a 0.45454,0.45454 0 0 0 -0.33203,0.14648 l -63.889,69.305 18.533,-4.9629 45.852,-33.613 18.684,-9.4844 a 0.45454,0.45454 0 0 0 0.19922,-0.61133 0.45454,0.45454 0 0 0 -0.61133,-0.19922 l -18.748,9.5176 -45.773,33.557 -15.342,4.1055 61.764,-66.998 a 0.45454,0.45454 0 0 0 -0.02539,-0.64258 0.45454,0.45454 0 0 0 -0.31055,-0.11914 z m 14.98,-22.423 a 0.45454,0.45454 0 0 0 -0.19531,0.05078 0.45454,0.45454 0 0 0 -0.19336,0.61328 l 9.5898,18.396 a 0.45454,0.45454 0 0 0 0.61328,0.19336 0.45454,0.45454 0 0 0 0.19336,-0.61328 l -9.5898,-18.396 A 0.45454,0.45454 0 0 0 82.236,32.395 Z m 9.86,-7.334 a 0.45454,0.45454 0 0 0 -0.08984,0.01172 0.45454,0.45454 0 0 0 -0.34961,0.53906 l 4.793,22.562 a 0.45454,0.45454 0 0 0 0.53906,0.34961 0.45454,0.45454 0 0 0 0.34961,-0.53906 l -4.793,-22.562 A 0.45454,0.45454 0 0 0 92.096,25.061 Z m 18.894,20.654 a 0.45454,0.45454 0 0 0 -0.0332,0.0039 l -14.125,1.9102 a 0.45459,0.45459 0 0 0 -0.20312,0.82031 l 12.883,9.2266 -0.16406,3.7461 a 0.45454,0.45454 0 0 0 0.43554,0.47266 0.45454,0.45454 0 0 0 0.47266,-0.43359 l 0.17383,-3.9922 a 0.45459,0.45459 0 0 0 -0.18946,-0.38867 l -12.15,-8.7051 12.988,-1.7559 a 0.45454,0.45454 0 0 0 0.39063,-0.51172 0.45454,0.45454 0 0 0 -0.47852,-0.39258 z m 4.52,10.586 a 0.45454,0.45454 0 0 0 -0.0352,0.0039 l -5.5527,0.69336 a 0.45454,0.45454 0 0 0 -0.39453,0.50781 0.45454,0.45454 0 0 0 0.50781,0.39453 l 5.5527,-0.69531 a 0.45454,0.45454 0 0 0 0.39453,-0.50586 0.45454,0.45454 0 0 0 -0.47266,-0.39844 z M 103.08,33.24 a 0.45459,0.45459 0 0 0 -0.16406,0.03711 l -1.4102,0.61328 a 0.45459,0.45459 0 0 0 -0.11719,0.76172 l 1.3496,1.166 a 0.45459,0.45459 0 0 0 0.50195,0.0625 l 1.3496,-0.67578 a 0.45459,0.45459 0 0 0 0.0918,-0.75195 l -1.2891,-1.1035 A 0.45459,0.45459 0 0 0 103.0799,33.24 Z m -0.0625,0.98438 0.55273,0.47461 -0.46679,0.23242 -0.57422,-0.49414 z M 92.066,25.062 a 0.45459,0.45459 0 0 0 -0.41016,0.54883 l 4.793,22.562 A 0.45459,0.45459 0 0 0 97.2379,48.374 l 11.023,-12.91 a 0.45459,0.45459 0 0 0 -0.10938,-0.68359 l -15.814,-9.6523 A 0.45459,0.45459 0 0 0 92.06604,25.0617 Z m 0.69727,1.3926 14.459,8.8262 -10.076,11.801 -4.3828,-20.627 z M 97.211,19.834 a 0.45459,0.45459 0 0 0 -0.35547,0.21875 l -2.3535,3.8828 a 0.45459,0.45459 0 0 0 -0.06641,0.23047 l -0.0293,3.0312 a 0.45459,0.45459 0 0 0 0.2168,0.39062 l 2.1289,1.3008 a 0.45459,0.45459 0 0 0 0.67969,-0.28711 l 0.89453,-3.8945 a 0.45459,0.45459 0 0 0 0.0078,-0.16797 l -0.64062,-4.3184 A 0.45459,0.45459 0 0 0 97.211,19.83394 Z m -0.23242,1.7695 0.44336,2.9824 -0.73438,3.1953 -1.3711,-0.83398 0.02734,-2.6465 1.6348,-2.6973 z M 130.96,9.6152 a 0.45459,0.45459 0 0 0 -0.26367,0.095703 l -27.039,20.861 a 0.45459,0.45459 0 0 0 -0.0527,0.67188 l 3.3613,3.5801 a 0.45459,0.45459 0 0 0 0.6582,0.0039 l 23.678,-24.441 a 0.45459,0.45459 0 0 0 -0.34179,-0.77148 z m -4.6953,4.6621 -18.961,19.578 -2.6934,-2.8691 21.654,-16.709 z M 92.084,25.062 a 0.45459,0.45459 0 0 0 -0.25586,0.08984 l -9.8477,7.332 a 0.45459,0.45459 0 0 0 -0.10547,0.11133 l -15.143,22.518 a 0.45454,0.45454 0 0 0 0.12305,0.63086 0.45454,0.45454 0 0 0 0.63086,-0.12305 l 15.1,-22.455 9.6191,-7.1621 8.1426,1.7695 7.1602,7.627 3.0723,10.891 a 0.45459,0.45459 0 0 0 0.0195,0.05469 l 4.4316,10.398 -1.5566,3.2578 -3.1934,-2.8906 a 0.45459,0.45459 0 0 0 -0.68945,0.58203 l 2.0176,3.1719 -1.627,0.10742 -12.762,-13.209 A 0.45459,0.45459 0 0 0 96.652,47.693308 l -5.0527,3.166 a 0.45459,0.45459 0 0 0 -0.20117,0.2793 l -5.9434,24.557 a 0.45454,0.45454 0 0 0 0.33594,0.54883 0.45454,0.45454 0 0 0 0.54883,-0.33398 l 5.8984,-24.379 4.584,-2.8711 12.654,13.096 a 0.45459,0.45459 0 0 0 0.35547,0.13867 l 2.6035,-0.17383 a 0.45459,0.45459 0 0 0 0.35351,-0.69726 l -0.625,-0.98047 1.1524,1.041 a 0.45459,0.45459 0 0 0 0.71484,-0.14062 l 1.9082,-3.9922 a 0.45459,0.45459 0 0 0 0.008,-0.375 l -4.5,-10.559 -3.0938,-10.971 a 0.45459,0.45459 0 0 0 -0.10743,-0.1875 l -7.332,-7.8105 a 0.45459,0.45459 0 0 0 -0.23437,-0.13281 l -8.4824,-1.8438 a 0.45459,0.45459 0 0 0 -0.11328,-0.0098 z m -24.996,29.85 a 0.45454,0.45454 0 0 0 -0.28516,0.11914 0.45454,0.45454 0 0 0 -0.02734,0.64258 l 61.633,67.043 -17.156,-4.2461 -43.826,-33.553 -18.863,-9.5488 a 0.45454,0.45454 0 0 0 -0.61133,0.20117 0.45454,0.45454 0 0 0 0.20117,0.60938 l 18.787,9.5117 43.91,33.617 20.27,5.0137 -63.676,-69.264 A 0.45454,0.45454 0 0 0 67.08887,54.91129 Z M 52.045,32.307 a 0.45454,0.45454 0 0 0 -0.39453,0.24414 l -9.5879,18.396 a 0.45454,0.45454 0 0 0 0.19336,0.61328 0.45454,0.45454 0 0 0 0.61328,-0.19336 l 9.5879,-18.395 A 0.45454,0.45454 0 0 0 52.26375,32.35878 0.45454,0.45454 0 0 0 52.045,32.306046 Z m -9.857,-7.332 a 0.45454,0.45454 0 0 0 -0.42773,0.35938 l -4.791,22.564 a 0.45454,0.45454 0 0 0 0.34961,0.53906 0.45454,0.45454 0 0 0 0.53906,-0.35156 l 4.793,-22.562 a 0.45454,0.45454 0 0 0 -0.35156,-0.53906 0.45454,0.45454 0 0 0 -0.11133,-0.0098 z M 23.293,45.627 a 0.45454,0.45454 0 0 0 -0.45508,0.39453 0.45454,0.45454 0 0 0 0.38867,0.50977 l 12.99,1.7578 -12.152,8.7031 a 0.45459,0.45459 0 0 0 -0.18945,0.39062 l 0.17383,3.9902 a 0.45454,0.45454 0 0 0 0.47461,0.43555 0.45454,0.45454 0 0 0 0.43359,-0.47461 l -0.16211,-3.7461 12.883,-9.2266 a 0.45459,0.45459 0 0 0 -0.20508,-0.82031 l -14.123,-1.9102 a 0.45454,0.45454 0 0 0 -0.05664,-0.0039 z m -4.518,10.586 a 0.45454,0.45454 0 0 0 -0.45117,0.39844 0.45454,0.45454 0 0 0 0.39453,0.50781 l 5.5547,0.69336 a 0.45454,0.45454 0 0 0 0.50781,-0.39453 0.45454,0.45454 0 0 0 -0.39453,-0.50586 l -5.5547,-0.69531 A 0.45454,0.45454 0 0 0 18.775,56.21301 Z m 12.45,-23.061 a 0.45459,0.45459 0 0 0 -0.3125,0.10938 l -1.2891,1.1055 a 0.45459,0.45459 0 0 0 0.09375,0.75195 l 1.3496,0.67383 a 0.45459,0.45459 0 0 0 0.5,-0.0625 l 1.3496,-1.166 A 0.45459,0.45459 0 0 0 32.80111,33.8044 l -1.4121,-0.61328 a 0.45459,0.45459 0 0 0 -0.16406,-0.03906 z m 0.0625,0.98633 0.48633,0.21094 -0.57227,0.49609 -0.4668,-0.23438 0.55273,-0.47266 z M 42.221,24.975 a 0.45459,0.45459 0 0 0 -0.25195,0.06641 l -15.814,9.6543 a 0.45459,0.45459 0 0 0 -0.10938,0.68359 l 11.021,12.908 a 0.45459,0.45459 0 0 0 0.79102,-0.20117 l 4.793,-22.562 A 0.45459,0.45459 0 0 0 42.221,24.975297 Z m -0.67969,1.3926 -4.3809,20.631 -10.078,-11.805 14.459,-8.8262 z M 37.074,19.746 a 0.45459,0.45459 0 0 0 -0.46094,0.38867 l -0.64062,4.3164 a 0.45459,0.45459 0 0 0 0.0059,0.16797 l 0.89453,3.8965 a 0.45459,0.45459 0 0 0 0.67969,0.28516 l 2.1289,-1.2988 a 0.45459,0.45459 0 0 0 0.21875,-0.39258 l -0.0293,-3.0293 A 0.45459,0.45459 0 0 0 39.8045,23.8476 L 37.451,19.9648 a 0.45459,0.45459 0 0 0 -0.37695,-0.21875 z m 0.25195,1.7695 1.6367,2.6973 0.02539,2.6484 -1.3691,0.83594 -0.73438,-3.1973 0.44141,-2.9844 z M 42.213,24.975 a 0.45459,0.45459 0 0 0 -0.10352,0.0098 l -8.4824,1.8438 a 0.45459,0.45459 0 0 0 -0.23633,0.13477 l -7.332,7.8086 a 0.45459,0.45459 0 0 0 -0.10547,0.1875 l -3.0938,10.971 -4.502,10.561 a 0.45459,0.45459 0 0 0 0.0078,0.37305 l 1.9102,3.9922 a 0.45459,0.45459 0 0 0 0.71484,0.14062 l 1.1484,-1.0391 -0.62305,0.97852 a 0.45459,0.45459 0 0 0 0.35352,0.69922 l 2.6035,0.17188 a 0.45459,0.45459 0 0 0 0.35742,-0.13672 l 12.654,-13.098 4.582,2.873 5.8496,24.436 a 0.45454,0.45454 0 0 0 0.54688,0.33594 0.45454,0.45454 0 0 0 0.33594,-0.54688 l -5.8906,-24.617 a 0.45459,0.45459 0 0 0 -0.20117,-0.2793 l -5.0527,-3.166 a 0.45459,0.45459 0 0 0 -0.56836,0.06836 l -12.764,13.211 -1.6289,-0.10938 2.0195,-3.1719 A 0.45459,0.45459 0 0 0 24.0248,57.0269 l -3.1934,2.8887 -1.5566,-3.2559 4.4316,-10.398 a 0.45459,0.45459 0 0 0 0.01758,-0.05469 l 3.0723,-10.893 7.1602,-7.625 8.1426,-1.7695 9.6211,7.1621 15.098,22.453 a 0.45454,0.45454 0 0 0 0.63086,0.12305 0.45454,0.45454 0 0 0 0.125,-0.63086 l -15.143,-22.518 a 0.45459,0.45459 0 0 0 -0.10547,-0.11133 l -9.8496,-7.332 A 0.45459,0.45459 0 0 0 42.2123,24.97563 Z M 3.3456966,9.5293 A 0.45459,0.45459 0 0 0 3.0038991,10.29883 L 26.6819,34.74183 a 0.45459,0.45459 0 0 0 0.656247,-0.0059 l 3.363301,-3.580099 a 0.45459,0.45459 0 0 0 -0.0547,-0.66992 L 3.6077491,9.6229101 a 0.45459,0.45459 0 0 0 -0.2617177,-0.09371 z m 4.6875046,4.6582 21.6619958,16.711001 -2.693396,2.8691 L 8.0328007,14.1876 Z"
       style="font-variant-ligatures:normal;font-variant-position:normal;font-variant-caps:normal;font-variant-numeric:normal;font-variant-alternates:normal;font-variant-east-asian:normal;font-feature-settings:normal;font-variation-settings:normal;text-indent:0;text-decoration:none;text-decoration-line:none;text-decoration-style:solid;text-decoration-color:#000000;text-transform:none;text-orientation:mixed;white-space:normal;shape-padding:0;shape-margin:0;inline-size:0;isolation:auto;mix-blend-mode:normal;fill:#003380"
       id="path50" />
  </g>
</svg>
